# xmcd CD database file
#
# Track frame offsets:
#	150
#	15852
#	27901
#	42999
#	59867
#	80033
#	96482
#	116631
#	133641
#	151877
#	169698
#
# Disc length: 2572 seconds
#
# Revision: 8
# Processed by: cddbd v1.5.2PL0 Copyright (c) Steve Scherf et al.
# Submitted via: CDex 2.23
#
DISCID=8e0a0a0b
DTITLE=DIAFOROI - 20 HRONIA META...Cd 2
DYEAR=2002
DGENRE=Acid
TTITLE0=LOIZOS - S AKOLOUTHO
TTITLE1=H and P KATSIMIHAS - GERNAS KAI SKOTEINIAZEI
TTITLE2=LIDAKIS - KI AN TA MATIA SOU
TTITLE3=KANA - KI EGO SAN POLI
TTITLE4=TSALIGOPOULOU - EHO ENAN KAFENE
TTITLE5=LIDAKIS - OTAN VLEPETE NA KLAIO
TTITLE6=TSALIGOPOULOU - O ARHIGOS
TTITLE7=KANA - THA KLEISO TO PARATHYRO
TTITLE8=K THOMAIDIS - ME FOURTOUNIAZEI O EROTAS
TTITLE9=ANOIHTI THALASSA - TO SIRIAL
TTITLE10=TSAKNIS - TIPOTA DEN PAEI HAMENO
EXTD=YEAR: 2002
EXTT0=
EXTT1=
EXTT2=
EXTT3=
EXTT4=
EXTT5=
EXTT6=
EXTT7=
EXTT8=
EXTT9=
EXTT10=
PLAYORDER=
